<?xml version="1.0" encoding="iso-8859-1"?>
<!-- Generator: Adobe Illustrator 16.0.0, SVG Export Plug-In . SVG Version: 6.00 Build 0)  -->
<!DOCTYPE svg PUBLIC "-//W3C//DTD SVG 1.1//EN" "http://www.w3.org/Graphics/SVG/1.1/DTD/svg11.dtd">
<svg version="1.1" id="Capa_1" xmlns="http://www.w3.org/2000/svg" xmlns:xlink="http://www.w3.org/1999/xlink" x="0px" y="0px"
	 width="426.229px" height="426.229px" viewBox="0 0 426.229 426.229" style="enable-background:new 0 0 426.229 426.229;"
	 xml:space="preserve">
<g>
	<path d="M356.605,85.625v-9.202c0-30.142-24.523-54.663-54.662-54.663H124.287c-30.141,0-54.664,24.521-54.664,54.663v9.202
		C30.762,88.481,0,120.93,0,160.507v168.799c0,41.447,33.719,75.162,75.163,75.162h275.904c41.445,0,75.162-33.715,75.162-75.162
		V160.507C426.229,120.929,395.461,88.473,356.605,85.625z M96.955,76.424c0-15.073,12.258-27.331,27.332-27.331h177.657
		c15.064,0,27.332,12.258,27.332,27.331v6.984H96.955V76.424z M75.163,112.676h275.904c26.379,0,47.83,21.459,47.83,47.83v49.291
		H264.176c-1.016,0-1.996,0.126-2.941,0.334c-0.957-0.208-1.938-0.334-2.951-0.334c-7.547,0-13.666,6.118-13.666,13.666
		c0,17.368-14.133,31.502-31.501,31.502c-17.371,0-31.503-14.134-31.503-31.502c0-7.548-6.118-13.666-13.666-13.666
		c-1.013,0-1.993,0.126-2.95,0.334c-0.945-0.208-1.926-0.334-2.941-0.334H27.332v-49.291
		C27.332,134.135,48.785,112.676,75.163,112.676z M351.066,377.136H75.163c-26.378,0-47.831-21.459-47.831-47.83v-92.178h128.617
		c6.188,25.863,29.435,45.169,57.166,45.169s50.979-19.306,57.167-45.169h128.615v92.178
		C398.896,355.677,377.445,377.136,351.066,377.136z"/>
</g>
<g>
</g>
<g>
</g>
<g>
</g>
<g>
</g>
<g>
</g>
<g>
</g>
<g>
</g>
<g>
</g>
<g>
</g>
<g>
</g>
<g>
</g>
<g>
</g>
<g>
</g>
<g>
</g>
<g>
</g>
</svg>
