<?xml version="1.0" encoding="iso-8859-1"?>
<!-- Generator: Adobe Illustrator 16.0.0, SVG Export Plug-In . SVG Version: 6.00 Build 0)  -->
<!DOCTYPE svg PUBLIC "-//W3C//DTD SVG 1.1//EN" "http://www.w3.org/Graphics/SVG/1.1/DTD/svg11.dtd">
<svg version="1.1" id="Capa_1" xmlns="http://www.w3.org/2000/svg" xmlns:xlink="http://www.w3.org/1999/xlink" x="0px" y="0px"
	 width="439.484px" height="439.484px" viewBox="0 0 439.484 439.484" style="enable-background:new 0 0 439.484 439.484;"
	 xml:space="preserve">
<g>
	<g>
		<path d="M359.863,0H79.62C47.165,0,20.756,26.396,20.756,58.864V380.62c0,32.454,26.409,58.864,58.864,58.864h280.244
			c32.461,0,58.865-26.41,58.865-58.864V58.864C418.729,26.396,392.324,0,359.863,0z M50.399,387.466
			c0.365-0.464,0.786-0.844,1.097-1.348l78.66-128.089l61.853,88.604l-42.075,64.063H79.621
			C65.403,410.698,53.518,400.747,50.399,387.466z M260.83,294.28l74.107,116.418H184.375L260.83,294.28z M389.943,380.62
			c0,13.662-9.223,25.104-21.725,28.744l-95.057-149.326c-2.629-4.118-7.16-6.621-12.039-6.662
			c-4.885,0.017-9.451,2.404-12.137,6.492l-39.968,60.861l-67.83-97.193c-2.775-3.978-7.38-6.27-12.223-6.142
			c-4.848,0.14-9.304,2.714-11.841,6.845L49.542,334.292V58.864c0-16.588,13.493-30.077,30.078-30.077h280.244
			c16.586,0,30.08,13.489,30.08,30.077V380.62L389.943,380.62z"/>
		<path d="M286.102,73.37c-34.797,0-63.104,28.309-63.104,63.107c0,34.787,28.307,63.095,63.104,63.095
			c34.801,0,63.107-28.308,63.107-63.095C349.209,101.679,320.902,73.37,286.102,73.37z M286.102,170.785
			c-18.918,0-34.316-15.389-34.316-34.308s15.398-34.324,34.316-34.324c18.926,0,34.322,15.405,34.322,34.324
			S305.027,170.785,286.102,170.785z"/>
	</g>
</g>
<g>
</g>
<g>
</g>
<g>
</g>
<g>
</g>
<g>
</g>
<g>
</g>
<g>
</g>
<g>
</g>
<g>
</g>
<g>
</g>
<g>
</g>
<g>
</g>
<g>
</g>
<g>
</g>
<g>
</g>
</svg>
