<?xml version="1.0" encoding="iso-8859-1"?>
<!-- Generator: Adobe Illustrator 16.0.0, SVG Export Plug-In . SVG Version: 6.00 Build 0)  -->
<!DOCTYPE svg PUBLIC "-//W3C//DTD SVG 1.1//EN" "http://www.w3.org/Graphics/SVG/1.1/DTD/svg11.dtd">
<svg version="1.1" id="Capa_1" xmlns="http://www.w3.org/2000/svg" xmlns:xlink="http://www.w3.org/1999/xlink" x="0px" y="0px"
	 width="461.264px" height="461.265px" viewBox="0 0 461.264 461.265" style="enable-background:new 0 0 461.264 461.265;"
	 xml:space="preserve">
<g>
	<g>
		<path d="M169.166,49.367c-63.055,0-114.362,51.298-114.362,114.362c0,63.062,51.308,114.361,114.362,114.361
			c63.062,0,114.36-51.3,114.36-114.361C283.528,100.666,232.229,49.367,169.166,49.367z M169.166,249.615
			c-47.357,0-85.886-38.529-85.886-85.886c0-47.359,38.529-85.886,85.886-85.886c47.358,0,85.885,38.526,85.885,85.886
			C255.051,211.086,216.525,249.615,169.166,249.615z"/>
		<path d="M451.657,436.96L289.411,274.706c26.967-29.199,43.482-68.188,43.482-110.977C332.893,73.449,259.446,0,169.165,0
			C78.885,0,5.436,73.448,5.436,163.729c0,90.279,73.449,163.729,163.729,163.729c37.256,0,71.621-12.528,99.166-33.566
			l163.191,163.202c2.781,2.779,6.424,4.171,10.066,4.171s7.293-1.392,10.066-4.171C457.219,451.531,457.219,442.522,451.657,436.96
			z M33.914,163.73c0-74.582,60.677-135.252,135.252-135.252c74.583,0,135.254,60.67,135.254,135.252
			c0,74.583-60.672,135.252-135.254,135.252C94.591,298.982,33.914,238.312,33.914,163.73z"/>
	</g>
</g>
<g>
</g>
<g>
</g>
<g>
</g>
<g>
</g>
<g>
</g>
<g>
</g>
<g>
</g>
<g>
</g>
<g>
</g>
<g>
</g>
<g>
</g>
<g>
</g>
<g>
</g>
<g>
</g>
<g>
</g>
</svg>
